<svg xmlns="http://www.w3.org/2000/svg" viewBox="0 0 800 400" width="800" height="400">
  <style>
    @keyframes drawLine {
      to { stroke-dashoffset: 0; }
    }
    @keyframes fadeInPoint {
      from { opacity: 0; }
      to { opacity: 1; }
    }
    .data-line-0 {
      stroke-dasharray: 1177;
      stroke-dashoffset: 1177;
      animation: drawLine 2s ease-out forwards;
    }
    .data-point {
      opacity: 0;
      animation: fadeInPoint 0.5s ease-out forwards;
    }
    .chart-bg { fill: #fff; }
    .chart-text { fill: #24292e; }
    .chart-muted { fill: #6a737d; }
    .chart-grid { stroke: #eee; }
    .chart-axis { stroke: #6a737d; }
    @media (prefers-color-scheme: dark) {
      .chart-bg { fill: #0d1117; }
      .chart-text { fill: #e6edf3; }
      .chart-muted { fill: #8b949e; }
      .chart-grid { stroke: #21262d; }
      .chart-axis { stroke: #8b949e; }
    }
  </style>
  <rect width="800" height="400" class="chart-bg" />
  <text x="400" y="14" text-anchor="middle" class="chart-text" font-size="16" font-weight="bold" font-family="-apple-system, BlinkMacSystemFont, 'Segoe UI', Helvetica, Arial, sans-serif">Top Repositories</text>
  <g class="legend">
    <rect x="340" y="31" width="12" height="3" fill="#dfb317" />
    <line x1="340" y1="32.5" x2="352" y2="32.5" stroke="#dfb317" stroke-width="2" />
    <text x="356" y="36" class="chart-text" font-size="10" font-family="-apple-system, BlinkMacSystemFont, 'Segoe UI', Helvetica, Arial, sans-serif">RapidOCR</text>
  </g>
  <g class="grid">
    <line x1="60" y1="350" x2="770" y2="350" class="chart-grid" stroke-opacity="0.3" />
    <text x="52" y="354" text-anchor="end" class="chart-muted" font-size="11" font-family="-apple-system, BlinkMacSystemFont, 'Segoe UI', Helvetica, Arial, sans-serif">0</text>
    <line x1="60" y1="277.91926958193176" x2="770" y2="277.91926958193176" class="chart-grid" stroke-opacity="0.3" />
    <text x="52" y="281.91926958193176" text-anchor="end" class="chart-muted" font-size="11" font-family="-apple-system, BlinkMacSystemFont, 'Segoe UI', Helvetica, Arial, sans-serif">2K</text>
    <line x1="60" y1="205.83853916386354" x2="770" y2="205.83853916386354" class="chart-grid" stroke-opacity="0.3" />
    <text x="52" y="209.83853916386354" text-anchor="end" class="chart-muted" font-size="11" font-family="-apple-system, BlinkMacSystemFont, 'Segoe UI', Helvetica, Arial, sans-serif">4K</text>
    <line x1="60" y1="133.75780874579527" x2="770" y2="133.75780874579527" class="chart-grid" stroke-opacity="0.3" />
    <text x="52" y="137.75780874579527" text-anchor="end" class="chart-muted" font-size="11" font-family="-apple-system, BlinkMacSystemFont, 'Segoe UI', Helvetica, Arial, sans-serif">6K</text>
    <line x1="60" y1="61.67707832772709" x2="770" y2="61.67707832772709" class="chart-grid" stroke-opacity="0.3" />
    <text x="52" y="65.67707832772709" text-anchor="end" class="chart-muted" font-size="11" font-family="-apple-system, BlinkMacSystemFont, 'Segoe UI', Helvetica, Arial, sans-serif">8K</text>
  </g>
  <g class="milestones">
    
  </g>
  <g class="x-axis">
    <text x="60" y="370" text-anchor="middle" class="chart-muted" font-size="11" font-family="-apple-system, BlinkMacSystemFont, 'Segoe UI', Helvetica, Arial, sans-serif">2021</text>
    <text x="206.89655172413794" y="370" text-anchor="middle" class="chart-muted" font-size="11" font-family="-apple-system, BlinkMacSystemFont, 'Segoe UI', Helvetica, Arial, sans-serif">2022</text>
    <text x="329.3103448275862" y="370" text-anchor="middle" class="chart-muted" font-size="11" font-family="-apple-system, BlinkMacSystemFont, 'Segoe UI', Helvetica, Arial, sans-serif">2023</text>
    <text x="451.7241379310345" y="370" text-anchor="middle" class="chart-muted" font-size="11" font-family="-apple-system, BlinkMacSystemFont, 'Segoe UI', Helvetica, Arial, sans-serif">2024</text>
    <text x="574.1379310344828" y="370" text-anchor="middle" class="chart-muted" font-size="11" font-family="-apple-system, BlinkMacSystemFont, 'Segoe UI', Helvetica, Arial, sans-serif">2025</text>
    <text x="696.551724137931" y="370" text-anchor="middle" class="chart-muted" font-size="11" font-family="-apple-system, BlinkMacSystemFont, 'Segoe UI', Helvetica, Arial, sans-serif">2026</text>
  </g>
  <line x1="60" y1="50" x2="60" y2="350" class="chart-axis" stroke-width="1" />
  <line x1="60" y1="350" x2="770" y2="350" class="chart-axis" stroke-width="1" />
  
  <path d="M60,349.96395963479097 C68.16091954022988,349.48342143200387 76.32183908045977,348.97885631907735 84.48275862068965,348.5223450264296 C92.64367816091954,348.06583373378186 100.80459770114942,347.6513695338779 108.9655172413793,347.2248918789044 C117.12643678160919,346.7984142239308 125.28735632183907,346.46804420951463 133.44827586206895,345.9634790965882 C141.60919540229884,345.4589139836617 149.77011494252872,344.9363286881307 157.9310344827586,344.1975012013455 C166.0919540229885,343.4586737145603 174.2528735632184,342.2813551177319 182.41379310344828,341.530514175877 C190.57471264367817,340.77967323402214 198.73563218390805,340.35319557904853 206.89655172413794,339.69245555021627 C215.05747126436782,339.031715521384 223.2183908045977,338.7133589620375 231.3793103448276,337.5660740028832 C239.54022988505747,336.41878904372896 247.70114942528735,334.16626621816437 255.86206896551724,332.80874579529075 C264.0229885057471,331.4512253724171 272.183908045977,330.58024987986545 280.34482758620686,329.4209514656415 C288.50574712643675,328.26165305141757 296.6666666666667,327.1804420951466 304.82758620689657,325.85295530994716 C312.98850574712645,324.52546852474774 321.14942528735634,323.0358000961076 329.3103448275862,321.45603075444495 C337.4712643678161,319.8762614127823 345.632183908046,318.0081691494474 353.7931034482759,316.3743392599712 C361.95402298850576,314.740509370495 370.11494252873564,313.3349351273426 378.2758620689655,311.6530514175877 C386.4367816091954,309.97116770783276 394.5977011494253,308.39740509370495 402.7586206896552,306.2830370014416 C410.91954022988506,304.1686689091782 419.08045977011494,301.56174915905814 427.2413793103448,298.9668428640077 C435.4022988505747,296.3719365689572 443.5632183908046,293.6328688130706 451.7241379310345,290.71359923113886 C459.88505747126436,287.7943296492071 468.04597701149424,285.05526189332056 476.2068965517241,281.4512253724171 C484.367816091954,277.8471888515137 492.5287356321839,273.8647284959154 500.6896551724138,269.0893801057184 C508.85057471264366,264.31403171552137 517.0114942528736,257.2861604997597 525.1724137931035,252.79913503123498 C533.3333333333334,248.31210956271025 541.4942528735633,246.01153291686688 549.6551724137931,242.1672272945699 C557.816091954023,238.3229216722729 565.9770114942529,234.6828447861605 574.1379310344828,229.73330129745315 C582.2988505747127,224.7837578087458 590.4597701149426,217.9661220567035 598.6206896551724,212.4699663623258 C606.7816091954023,206.9738106679481 614.9425287356322,202.69101393560788 623.1034482758621,196.75636713118692 C631.264367816092,190.82172032676596 639.4252873563219,182.39428159538684 647.5862068965517,176.8620855358001 C655.7471264367816,171.32988947621337 663.9080459770115,168.51273426237384 672.0689655172414,163.5631907736665 C680.2298850574713,158.61364728495914 688.3908045977012,153.33373378183566 696.551724137931,147.16482460355599 C704.7126436781609,140.9959154252763 712.8735632183908,133.54156655454108 721.0344827586207,126.54973570398846 C729.1954022988506,119.55790485343584 737.3563218390805,113.42503604036519 745.5172413793103,105.21383950024025 C753.6781609195402,97.00264296011532 761.8390804597701,86.59298414223932 770,77.28255646323885" fill="none" stroke="#dfb317" stroke-width="2.5" class="data-line-0" />
  <g class="points">
    
    <circle cx="60" cy="349.96395963479097" r="4" fill="#dfb317" class="data-point" style="animation-delay: 1.50s" />
    <circle cx="84.48275862068965" cy="348.5223450264296" r="4" fill="#dfb317" class="data-point" style="animation-delay: 1.55s" />
    <circle cx="108.9655172413793" cy="347.2248918789044" r="4" fill="#dfb317" class="data-point" style="animation-delay: 1.60s" />
    <circle cx="133.44827586206895" cy="345.9634790965882" r="4" fill="#dfb317" class="data-point" style="animation-delay: 1.65s" />
    <circle cx="157.9310344827586" cy="344.1975012013455" r="4" fill="#dfb317" class="data-point" style="animation-delay: 1.70s" />
    <circle cx="182.41379310344828" cy="341.530514175877" r="4" fill="#dfb317" class="data-point" style="animation-delay: 1.75s" />
    <circle cx="206.89655172413794" cy="339.69245555021627" r="4" fill="#dfb317" class="data-point" style="animation-delay: 1.80s" />
    <circle cx="231.3793103448276" cy="337.5660740028832" r="4" fill="#dfb317" class="data-point" style="animation-delay: 1.85s" />
    <circle cx="255.86206896551724" cy="332.80874579529075" r="4" fill="#dfb317" class="data-point" style="animation-delay: 1.90s" />
    <circle cx="280.34482758620686" cy="329.4209514656415" r="4" fill="#dfb317" class="data-point" style="animation-delay: 1.95s" />
    <circle cx="304.82758620689657" cy="325.85295530994716" r="4" fill="#dfb317" class="data-point" style="animation-delay: 2.00s" />
    <circle cx="329.3103448275862" cy="321.45603075444495" r="4" fill="#dfb317" class="data-point" style="animation-delay: 2.05s" />
    <circle cx="353.7931034482759" cy="316.3743392599712" r="4" fill="#dfb317" class="data-point" style="animation-delay: 2.10s" />
    <circle cx="378.2758620689655" cy="311.6530514175877" r="4" fill="#dfb317" class="data-point" style="animation-delay: 2.15s" />
    <circle cx="402.7586206896552" cy="306.2830370014416" r="4" fill="#dfb317" class="data-point" style="animation-delay: 2.20s" />
    <circle cx="427.2413793103448" cy="298.9668428640077" r="4" fill="#dfb317" class="data-point" style="animation-delay: 2.25s" />
    <circle cx="451.7241379310345" cy="290.71359923113886" r="4" fill="#dfb317" class="data-point" style="animation-delay: 2.30s" />
    <circle cx="476.2068965517241" cy="281.4512253724171" r="4" fill="#dfb317" class="data-point" style="animation-delay: 2.35s" />
    <circle cx="500.6896551724138" cy="269.0893801057184" r="4" fill="#dfb317" class="data-point" style="animation-delay: 2.40s" />
    <circle cx="525.1724137931035" cy="252.79913503123498" r="4" fill="#dfb317" class="data-point" style="animation-delay: 2.45s" />
    <circle cx="549.6551724137931" cy="242.1672272945699" r="4" fill="#dfb317" class="data-point" style="animation-delay: 2.50s" />
    <circle cx="574.1379310344828" cy="229.73330129745315" r="4" fill="#dfb317" class="data-point" style="animation-delay: 2.55s" />
    <circle cx="598.6206896551724" cy="212.4699663623258" r="4" fill="#dfb317" class="data-point" style="animation-delay: 2.60s" />
    <circle cx="623.1034482758621" cy="196.75636713118692" r="4" fill="#dfb317" class="data-point" style="animation-delay: 2.65s" />
    <circle cx="647.5862068965517" cy="176.8620855358001" r="4" fill="#dfb317" class="data-point" style="animation-delay: 2.70s" />
    <circle cx="672.0689655172414" cy="163.5631907736665" r="4" fill="#dfb317" class="data-point" style="animation-delay: 2.75s" />
    <circle cx="696.551724137931" cy="147.16482460355599" r="4" fill="#dfb317" class="data-point" style="animation-delay: 2.80s" />
    <circle cx="721.0344827586207" cy="126.54973570398846" r="4" fill="#dfb317" class="data-point" style="animation-delay: 2.85s" />
    <circle cx="745.5172413793103" cy="105.21383950024025" r="4" fill="#dfb317" class="data-point" style="animation-delay: 2.90s" />
    <circle cx="770" cy="77.28255646323885" r="4" fill="#dfb317" class="data-point" style="animation-delay: 2.95s" />
  </g>
</svg>