<svg xmlns="http://www.w3.org/2000/svg" viewBox="0 0 800 400" width="800" height="400">
  <style>
    @keyframes drawLine {
      to { stroke-dashoffset: 0; }
    }
    @keyframes fadeInPoint {
      from { opacity: 0; }
      to { opacity: 1; }
    }
    .data-line-0 {
      stroke-dasharray: 1178;
      stroke-dashoffset: 1178;
      animation: drawLine 2s ease-out forwards;
    }
    .data-point {
      opacity: 0;
      animation: fadeInPoint 0.5s ease-out forwards;
    }
    .chart-bg { fill: #fff; }
    .chart-text { fill: #24292e; }
    .chart-muted { fill: #6a737d; }
    .chart-grid { stroke: #eee; }
    .chart-axis { stroke: #6a737d; }
    @media (prefers-color-scheme: dark) {
      .chart-bg { fill: #0d1117; }
      .chart-text { fill: #e6edf3; }
      .chart-muted { fill: #8b949e; }
      .chart-grid { stroke: #21262d; }
      .chart-axis { stroke: #8b949e; }
    }
  </style>
  <rect width="800" height="400" class="chart-bg" />
  <text x="400" y="14" text-anchor="middle" class="chart-text" font-size="16" font-weight="bold" font-family="-apple-system, BlinkMacSystemFont, 'Segoe UI', Helvetica, Arial, sans-serif">Top Repositories</text>
  <g class="legend">
    <rect x="340" y="31" width="12" height="3" fill="#dfb317" />
    <line x1="340" y1="32.5" x2="352" y2="32.5" stroke="#dfb317" stroke-width="2" />
    <text x="356" y="36" class="chart-text" font-size="10" font-family="-apple-system, BlinkMacSystemFont, 'Segoe UI', Helvetica, Arial, sans-serif">RapidOCR</text>
  </g>
  <g class="grid">
    <line x1="60" y1="350" x2="770" y2="350" class="chart-grid" stroke-opacity="0.3" />
    <text x="52" y="354" text-anchor="end" class="chart-muted" font-size="11" font-family="-apple-system, BlinkMacSystemFont, 'Segoe UI', Helvetica, Arial, sans-serif">0</text>
    <line x1="60" y1="280.73193257908105" x2="770" y2="280.73193257908105" class="chart-grid" stroke-opacity="0.3" />
    <text x="52" y="284.73193257908105" text-anchor="end" class="chart-muted" font-size="11" font-family="-apple-system, BlinkMacSystemFont, 'Segoe UI', Helvetica, Arial, sans-serif">2K</text>
    <line x1="60" y1="211.4638651581621" x2="770" y2="211.4638651581621" class="chart-grid" stroke-opacity="0.3" />
    <text x="52" y="215.4638651581621" text-anchor="end" class="chart-muted" font-size="11" font-family="-apple-system, BlinkMacSystemFont, 'Segoe UI', Helvetica, Arial, sans-serif">4K</text>
    <line x1="60" y1="142.19579773724314" x2="770" y2="142.19579773724314" class="chart-grid" stroke-opacity="0.3" />
    <text x="52" y="146.19579773724314" text-anchor="end" class="chart-muted" font-size="11" font-family="-apple-system, BlinkMacSystemFont, 'Segoe UI', Helvetica, Arial, sans-serif">6K</text>
    <line x1="60" y1="72.92773031632419" x2="770" y2="72.92773031632419" class="chart-grid" stroke-opacity="0.3" />
    <text x="52" y="76.92773031632419" text-anchor="end" class="chart-muted" font-size="11" font-family="-apple-system, BlinkMacSystemFont, 'Segoe UI', Helvetica, Arial, sans-serif">8K</text>
  </g>
  <g class="milestones">
    
  </g>
  <g class="x-axis">
    <text x="60" y="370" text-anchor="middle" class="chart-muted" font-size="11" font-family="-apple-system, BlinkMacSystemFont, 'Segoe UI', Helvetica, Arial, sans-serif">2021</text>
    <text x="182.41379310344828" y="370" text-anchor="middle" class="chart-muted" font-size="11" font-family="-apple-system, BlinkMacSystemFont, 'Segoe UI', Helvetica, Arial, sans-serif">2022</text>
    <text x="329.3103448275862" y="370" text-anchor="middle" class="chart-muted" font-size="11" font-family="-apple-system, BlinkMacSystemFont, 'Segoe UI', Helvetica, Arial, sans-serif">2023</text>
    <text x="451.7241379310345" y="370" text-anchor="middle" class="chart-muted" font-size="11" font-family="-apple-system, BlinkMacSystemFont, 'Segoe UI', Helvetica, Arial, sans-serif">2024</text>
    <text x="574.1379310344828" y="370" text-anchor="middle" class="chart-muted" font-size="11" font-family="-apple-system, BlinkMacSystemFont, 'Segoe UI', Helvetica, Arial, sans-serif">2025</text>
    <text x="696.551724137931" y="370" text-anchor="middle" class="chart-muted" font-size="11" font-family="-apple-system, BlinkMacSystemFont, 'Segoe UI', Helvetica, Arial, sans-serif">2026</text>
  </g>
  <line x1="60" y1="50" x2="60" y2="350" class="chart-axis" stroke-width="1" />
  <line x1="60" y1="350" x2="770" y2="350" class="chart-axis" stroke-width="1" />
  
  <path d="M60,349.96536596628954 C68.16091954022988,349.50357885015006 76.32183908045977,349.01870237820367 84.48275862068965,348.58000461787117 C92.64367816091954,348.14130685753867 100.80459770114942,347.7545601477719 108.9655172413793,347.33317940429464 C117.12643678160919,346.9117986608174 125.28735632183907,346.5770030016162 133.44827586206895,346.0517201570076 C141.60919540229884,345.52643731239897 149.77011494252872,344.90879704456245 157.9310344827586,344.18148233664283 C166.0919540229885,343.45416762872316 174.2528735632184,342.3920572616024 182.41379310344828,341.6878319094897 C190.57471264367817,340.983606557377 198.73563218390805,340.59685984761023 206.89655172413794,339.95613022396674 C215.05747126436782,339.31540060032324 223.2183908045977,339.00369429692915 231.3793103448276,337.84345416762875 C239.54022988505747,336.68321403832834 247.70114942528735,334.34541676287233 255.86206896551724,332.9946894481644 C264.0229885057471,331.6439621334565 272.183908045977,330.81274532440545 280.34482758620686,329.73909027938123 C288.50574712643675,328.665435234357 296.6666666666667,327.8746247979682 304.82758620689657,326.55275917801896 C312.98850574712645,325.23089355806974 321.14942528735634,323.4818748556915 329.3103448275862,321.80789655968596 C337.4712643678161,320.1339182636804 345.632183908046,318.0501039021011 353.7931034482759,316.5088894019857 C361.95402298850576,314.9676749018703 370.11494252873564,314.096051720157 378.2758620689655,312.5606095589933 C386.4367816091954,311.0251673978296 394.5977011494253,309.48972523666595 402.7586206896552,307.2962364350035 C410.91954022988506,305.10274763334104 419.08045977011494,302.0030016162549 427.2413793103448,299.3996767490187 C435.4022988505747,296.79635188178247 443.5632183908046,294.5855460632648 451.7241379310345,291.67628723158623 C459.88505747126436,288.76702839990764 468.04597701149424,285.5691526206419 476.2068965517241,281.9441237589471 C484.367816091954,278.31909489725234 492.5287356321839,274.57861925652276 500.6896551724138,269.9261140614177 C508.85057471264366,265.27360886631266 517.0114942528736,258.5776956822905 525.1724137931035,254.0290925883168 C533.3333333333334,249.48048949434312 541.4942528735633,246.58854767951973 549.6551724137931,242.6344954975756 C557.816091954023,238.6804433156315 565.9770114942529,235.00346340337103 574.1379310344828,230.30477949665203 C582.2988505747127,225.60609558993303 590.4597701149426,220.27245439852229 598.6206896551724,214.4423920572616 C606.7816091954023,208.61232971600091 614.9425287356322,201.19487416301087 623.1034482758621,195.32440544908798 C631.264367816092,189.4539367351651 639.4252873563219,183.97598706996075 647.5862068965517,179.21957977372432 C655.7471264367816,174.4631724774879 663.9080459770115,172.32163472639112 672.0689655172414,166.78596167166936 C680.2298850574713,161.25028861694759 688.3908045977012,152.43592703763565 696.551724137931,146.00554144539367 C704.7126436781609,139.5751558531517 712.8735632183908,135.01500808127452 721.0344827586207,128.2036481182175 C729.1954022988506,121.39228815516047 737.3563218390805,113.62271992611407 745.5172413793103,105.1373816670515 C753.6781609195402,96.65204340798893 761.8390804597701,86.5735395982452 770,77.29161856384206" fill="none" stroke="#dfb317" stroke-width="2.5" class="data-line-0" />
  <g class="points">
    
    <circle cx="60" cy="349.96536596628954" r="4" fill="#dfb317" class="data-point" style="animation-delay: 1.50s" />
    <circle cx="84.48275862068965" cy="348.58000461787117" r="4" fill="#dfb317" class="data-point" style="animation-delay: 1.55s" />
    <circle cx="108.9655172413793" cy="347.33317940429464" r="4" fill="#dfb317" class="data-point" style="animation-delay: 1.60s" />
    <circle cx="133.44827586206895" cy="346.0517201570076" r="4" fill="#dfb317" class="data-point" style="animation-delay: 1.65s" />
    <circle cx="157.9310344827586" cy="344.18148233664283" r="4" fill="#dfb317" class="data-point" style="animation-delay: 1.70s" />
    <circle cx="182.41379310344828" cy="341.6878319094897" r="4" fill="#dfb317" class="data-point" style="animation-delay: 1.75s" />
    <circle cx="206.89655172413794" cy="339.95613022396674" r="4" fill="#dfb317" class="data-point" style="animation-delay: 1.80s" />
    <circle cx="231.3793103448276" cy="337.84345416762875" r="4" fill="#dfb317" class="data-point" style="animation-delay: 1.85s" />
    <circle cx="255.86206896551724" cy="332.9946894481644" r="4" fill="#dfb317" class="data-point" style="animation-delay: 1.90s" />
    <circle cx="280.34482758620686" cy="329.73909027938123" r="4" fill="#dfb317" class="data-point" style="animation-delay: 1.95s" />
    <circle cx="304.82758620689657" cy="326.55275917801896" r="4" fill="#dfb317" class="data-point" style="animation-delay: 2.00s" />
    <circle cx="329.3103448275862" cy="321.80789655968596" r="4" fill="#dfb317" class="data-point" style="animation-delay: 2.05s" />
    <circle cx="353.7931034482759" cy="316.5088894019857" r="4" fill="#dfb317" class="data-point" style="animation-delay: 2.10s" />
    <circle cx="378.2758620689655" cy="312.5606095589933" r="4" fill="#dfb317" class="data-point" style="animation-delay: 2.15s" />
    <circle cx="402.7586206896552" cy="307.2962364350035" r="4" fill="#dfb317" class="data-point" style="animation-delay: 2.20s" />
    <circle cx="427.2413793103448" cy="299.3996767490187" r="4" fill="#dfb317" class="data-point" style="animation-delay: 2.25s" />
    <circle cx="451.7241379310345" cy="291.67628723158623" r="4" fill="#dfb317" class="data-point" style="animation-delay: 2.30s" />
    <circle cx="476.2068965517241" cy="281.9441237589471" r="4" fill="#dfb317" class="data-point" style="animation-delay: 2.35s" />
    <circle cx="500.6896551724138" cy="269.9261140614177" r="4" fill="#dfb317" class="data-point" style="animation-delay: 2.40s" />
    <circle cx="525.1724137931035" cy="254.0290925883168" r="4" fill="#dfb317" class="data-point" style="animation-delay: 2.45s" />
    <circle cx="549.6551724137931" cy="242.6344954975756" r="4" fill="#dfb317" class="data-point" style="animation-delay: 2.50s" />
    <circle cx="574.1379310344828" cy="230.30477949665203" r="4" fill="#dfb317" class="data-point" style="animation-delay: 2.55s" />
    <circle cx="598.6206896551724" cy="214.4423920572616" r="4" fill="#dfb317" class="data-point" style="animation-delay: 2.60s" />
    <circle cx="623.1034482758621" cy="195.32440544908798" r="4" fill="#dfb317" class="data-point" style="animation-delay: 2.65s" />
    <circle cx="647.5862068965517" cy="179.21957977372432" r="4" fill="#dfb317" class="data-point" style="animation-delay: 2.70s" />
    <circle cx="672.0689655172414" cy="166.78596167166936" r="4" fill="#dfb317" class="data-point" style="animation-delay: 2.75s" />
    <circle cx="696.551724137931" cy="146.00554144539367" r="4" fill="#dfb317" class="data-point" style="animation-delay: 2.80s" />
    <circle cx="721.0344827586207" cy="128.2036481182175" r="4" fill="#dfb317" class="data-point" style="animation-delay: 2.85s" />
    <circle cx="745.5172413793103" cy="105.1373816670515" r="4" fill="#dfb317" class="data-point" style="animation-delay: 2.90s" />
    <circle cx="770" cy="77.29161856384206" r="4" fill="#dfb317" class="data-point" style="animation-delay: 2.95s" />
  </g>
</svg>