<svg xmlns="http://www.w3.org/2000/svg" viewBox="0 0 800 400" width="800" height="400">
  <style>
    @keyframes drawLine {
      to { stroke-dashoffset: 0; }
    }
    @keyframes fadeInPoint {
      from { opacity: 0; }
      to { opacity: 1; }
    }
    .data-line-0 {
      stroke-dasharray: 1178;
      stroke-dashoffset: 1178;
      animation: drawLine 2s ease-out forwards;
    }
    .data-point {
      opacity: 0;
      animation: fadeInPoint 0.5s ease-out forwards;
    }
    .chart-bg { fill: #fff; }
    .chart-text { fill: #24292e; }
    .chart-muted { fill: #6a737d; }
    .chart-grid { stroke: #eee; }
    .chart-axis { stroke: #6a737d; }
    @media (prefers-color-scheme: dark) {
      .chart-bg { fill: #0d1117; }
      .chart-text { fill: #e6edf3; }
      .chart-muted { fill: #8b949e; }
      .chart-grid { stroke: #21262d; }
      .chart-axis { stroke: #8b949e; }
    }
  </style>
  <rect width="800" height="400" class="chart-bg" />
  <text x="400" y="14" text-anchor="middle" class="chart-text" font-size="16" font-weight="bold" font-family="-apple-system, BlinkMacSystemFont, 'Segoe UI', Helvetica, Arial, sans-serif">Top Repositories</text>
  <g class="legend">
    <rect x="340" y="31" width="12" height="3" fill="#dfb317" />
    <line x1="340" y1="32.5" x2="352" y2="32.5" stroke="#dfb317" stroke-width="2" />
    <text x="356" y="36" class="chart-text" font-size="10" font-family="-apple-system, BlinkMacSystemFont, 'Segoe UI', Helvetica, Arial, sans-serif">RapidOCR</text>
  </g>
  <g class="grid">
    <line x1="60" y1="350" x2="770" y2="350" class="chart-grid" stroke-opacity="0.3" />
    <text x="52" y="354" text-anchor="end" class="chart-muted" font-size="11" font-family="-apple-system, BlinkMacSystemFont, 'Segoe UI', Helvetica, Arial, sans-serif">0</text>
    <line x1="60" y1="281.94964273562437" x2="770" y2="281.94964273562437" class="chart-grid" stroke-opacity="0.3" />
    <text x="52" y="285.94964273562437" text-anchor="end" class="chart-muted" font-size="11" font-family="-apple-system, BlinkMacSystemFont, 'Segoe UI', Helvetica, Arial, sans-serif">2K</text>
    <line x1="60" y1="213.89928547124873" x2="770" y2="213.89928547124873" class="chart-grid" stroke-opacity="0.3" />
    <text x="52" y="217.89928547124873" text-anchor="end" class="chart-muted" font-size="11" font-family="-apple-system, BlinkMacSystemFont, 'Segoe UI', Helvetica, Arial, sans-serif">4K</text>
    <line x1="60" y1="145.8489282068731" x2="770" y2="145.8489282068731" class="chart-grid" stroke-opacity="0.3" />
    <text x="52" y="149.8489282068731" text-anchor="end" class="chart-muted" font-size="11" font-family="-apple-system, BlinkMacSystemFont, 'Segoe UI', Helvetica, Arial, sans-serif">6K</text>
    <line x1="60" y1="77.79857094249746" x2="770" y2="77.79857094249746" class="chart-grid" stroke-opacity="0.3" />
    <text x="52" y="81.79857094249746" text-anchor="end" class="chart-muted" font-size="11" font-family="-apple-system, BlinkMacSystemFont, 'Segoe UI', Helvetica, Arial, sans-serif">8K</text>
  </g>
  <g class="milestones">
    
  </g>
  <g class="x-axis">
    <text x="60" y="370" text-anchor="middle" class="chart-muted" font-size="11" font-family="-apple-system, BlinkMacSystemFont, 'Segoe UI', Helvetica, Arial, sans-serif">2021</text>
    <text x="182.41379310344828" y="370" text-anchor="middle" class="chart-muted" font-size="11" font-family="-apple-system, BlinkMacSystemFont, 'Segoe UI', Helvetica, Arial, sans-serif">2022</text>
    <text x="329.3103448275862" y="370" text-anchor="middle" class="chart-muted" font-size="11" font-family="-apple-system, BlinkMacSystemFont, 'Segoe UI', Helvetica, Arial, sans-serif">2023</text>
    <text x="451.7241379310345" y="370" text-anchor="middle" class="chart-muted" font-size="11" font-family="-apple-system, BlinkMacSystemFont, 'Segoe UI', Helvetica, Arial, sans-serif">2024</text>
    <text x="574.1379310344828" y="370" text-anchor="middle" class="chart-muted" font-size="11" font-family="-apple-system, BlinkMacSystemFont, 'Segoe UI', Helvetica, Arial, sans-serif">2025</text>
    <text x="696.551724137931" y="370" text-anchor="middle" class="chart-muted" font-size="11" font-family="-apple-system, BlinkMacSystemFont, 'Segoe UI', Helvetica, Arial, sans-serif">2026</text>
  </g>
  <line x1="60" y1="50" x2="60" y2="350" class="chart-axis" stroke-width="1" />
  <line x1="60" y1="350" x2="770" y2="350" class="chart-axis" stroke-width="1" />
  
  <path d="M60,349.9659748213678 C68.16091954022988,349.4896223205172 76.32183908045977,348.96790291482364 84.48275862068965,348.53691731881594 C92.64367816091954,348.10593172280824 100.80459770114942,347.7883633889078 108.9655172413793,347.38006124532154 C117.12643678160919,346.9717591017353 125.28735632183907,346.6144947260973 133.44827586206895,346.0871044572984 C141.60919540229884,345.55971418849947 149.77011494252872,344.9415901100147 157.9310344827586,344.2157196325281 C166.0919540229885,343.4898491550414 174.2528735632184,342.42939775433825 182.41379310344828,341.7318815923784 C190.57471264367817,341.0343654304185 198.73563218390805,340.67710105478056 206.89655172413794,340.030622660769 C215.05747126436782,339.3841442667574 223.2183908045977,339.00986730180335 231.3793103448276,337.85301122830896 C239.54022988505747,336.69615515481456 247.70114942528735,334.41079732335265 255.86206896551724,333.08948621980267 C264.0229885057471,331.76817511625273 272.183908045977,331.05364636497677 280.34482758620686,329.9251446070092 C288.50574712643675,328.79664284904163 296.6666666666667,327.61143246002047 304.82758620689657,326.3184756719973 C312.98850574712645,325.02551888397414 321.14942528735634,323.7268912328456 329.3103448275862,322.16740387887035 C337.4712643678161,320.6079165248951 345.632183908046,318.50969717591016 353.7931034482759,316.9615515481456 C361.95402298850576,315.4134059203811 370.11494252873564,314.47771350799593 378.2758620689655,312.8785301122831 C386.4367816091954,311.2793467165703 394.5977011494253,309.56674605875014 402.7586206896552,307.36645117386865 C410.91954022988506,305.16615628898717 419.08045977011494,302.23999092661904 427.2413793103448,299.67676080299424 C435.4022988505747,297.11353067936943 443.5632183908046,295.0039696041738 451.7241379310345,291.98707043211976 C459.88505747126436,288.97017126006574 468.04597701149424,285.84552568900983 476.2068965517241,281.57536577067026 C484.367816091954,277.3052058523307 492.5287356321839,270.72700465010774 500.6896551724138,266.3661109220823 C508.85057471264366,262.0052171940569 517.0114942528736,259.32856980832486 525.1724137931035,255.41000340251787 C533.3333333333334,251.49143699671092 541.4942528735633,247.02279686968356 549.6551724137931,242.85471248724056 C557.816091954023,238.68662810479756 565.9770114942529,235.04593399115345 574.1379310344828,230.40149710785983 C582.2988505747127,225.7570602245662 590.4597701149426,221.0048769422706 598.6206896551724,214.98809118747874 C606.7816091954023,208.97130543268688 614.9425287356322,199.9716456844732 623.1034482758621,194.30078257910856 C631.264367816092,188.6299194737439 639.4252873563219,185.4031983667914 647.5862068965517,180.9629125552909 C655.7471264367816,176.5226267437904 663.9080459770115,173.188159237836 672.0689655172414,167.6590677101055 C680.2298850574713,162.12997618237497 688.3908045977012,154.13405920381084 696.551724137931,147.7883633889078 C704.7126436781609,141.4426675740048 712.8735632183908,136.6904842917092 721.0344827586207,129.58489282068732 C729.1954022988506,122.47930134966542 737.3563218390805,113.87093115572188 745.5172413793103,105.15481456277644 C753.6781609195402,96.438697969831 761.8390804597701,86.5770670296019 770,77.28819326301465" fill="none" stroke="#dfb317" stroke-width="2.5" class="data-line-0" />
  <g class="points">
    
    <circle cx="60" cy="349.9659748213678" r="4" fill="#dfb317" class="data-point" style="animation-delay: 1.50s" />
    <circle cx="84.48275862068965" cy="348.53691731881594" r="4" fill="#dfb317" class="data-point" style="animation-delay: 1.55s" />
    <circle cx="108.9655172413793" cy="347.38006124532154" r="4" fill="#dfb317" class="data-point" style="animation-delay: 1.60s" />
    <circle cx="133.44827586206895" cy="346.0871044572984" r="4" fill="#dfb317" class="data-point" style="animation-delay: 1.65s" />
    <circle cx="157.9310344827586" cy="344.2157196325281" r="4" fill="#dfb317" class="data-point" style="animation-delay: 1.70s" />
    <circle cx="182.41379310344828" cy="341.7318815923784" r="4" fill="#dfb317" class="data-point" style="animation-delay: 1.75s" />
    <circle cx="206.89655172413794" cy="340.030622660769" r="4" fill="#dfb317" class="data-point" style="animation-delay: 1.80s" />
    <circle cx="231.3793103448276" cy="337.85301122830896" r="4" fill="#dfb317" class="data-point" style="animation-delay: 1.85s" />
    <circle cx="255.86206896551724" cy="333.08948621980267" r="4" fill="#dfb317" class="data-point" style="animation-delay: 1.90s" />
    <circle cx="280.34482758620686" cy="329.9251446070092" r="4" fill="#dfb317" class="data-point" style="animation-delay: 1.95s" />
    <circle cx="304.82758620689657" cy="326.3184756719973" r="4" fill="#dfb317" class="data-point" style="animation-delay: 2.00s" />
    <circle cx="329.3103448275862" cy="322.16740387887035" r="4" fill="#dfb317" class="data-point" style="animation-delay: 2.05s" />
    <circle cx="353.7931034482759" cy="316.9615515481456" r="4" fill="#dfb317" class="data-point" style="animation-delay: 2.10s" />
    <circle cx="378.2758620689655" cy="312.8785301122831" r="4" fill="#dfb317" class="data-point" style="animation-delay: 2.15s" />
    <circle cx="402.7586206896552" cy="307.36645117386865" r="4" fill="#dfb317" class="data-point" style="animation-delay: 2.20s" />
    <circle cx="427.2413793103448" cy="299.67676080299424" r="4" fill="#dfb317" class="data-point" style="animation-delay: 2.25s" />
    <circle cx="451.7241379310345" cy="291.98707043211976" r="4" fill="#dfb317" class="data-point" style="animation-delay: 2.30s" />
    <circle cx="476.2068965517241" cy="281.57536577067026" r="4" fill="#dfb317" class="data-point" style="animation-delay: 2.35s" />
    <circle cx="500.6896551724138" cy="266.3661109220823" r="4" fill="#dfb317" class="data-point" style="animation-delay: 2.40s" />
    <circle cx="525.1724137931035" cy="255.41000340251787" r="4" fill="#dfb317" class="data-point" style="animation-delay: 2.45s" />
    <circle cx="549.6551724137931" cy="242.85471248724056" r="4" fill="#dfb317" class="data-point" style="animation-delay: 2.50s" />
    <circle cx="574.1379310344828" cy="230.40149710785983" r="4" fill="#dfb317" class="data-point" style="animation-delay: 2.55s" />
    <circle cx="598.6206896551724" cy="214.98809118747874" r="4" fill="#dfb317" class="data-point" style="animation-delay: 2.60s" />
    <circle cx="623.1034482758621" cy="194.30078257910856" r="4" fill="#dfb317" class="data-point" style="animation-delay: 2.65s" />
    <circle cx="647.5862068965517" cy="180.9629125552909" r="4" fill="#dfb317" class="data-point" style="animation-delay: 2.70s" />
    <circle cx="672.0689655172414" cy="167.6590677101055" r="4" fill="#dfb317" class="data-point" style="animation-delay: 2.75s" />
    <circle cx="696.551724137931" cy="147.7883633889078" r="4" fill="#dfb317" class="data-point" style="animation-delay: 2.80s" />
    <circle cx="721.0344827586207" cy="129.58489282068732" r="4" fill="#dfb317" class="data-point" style="animation-delay: 2.85s" />
    <circle cx="745.5172413793103" cy="105.15481456277644" r="4" fill="#dfb317" class="data-point" style="animation-delay: 2.90s" />
    <circle cx="770" cy="77.28819326301465" r="4" fill="#dfb317" class="data-point" style="animation-delay: 2.95s" />
  </g>
</svg>