<svg xmlns="http://www.w3.org/2000/svg" viewBox="0 0 800 400" width="800" height="400">
  <style>
    @keyframes drawLine {
      to { stroke-dashoffset: 0; }
    }
    @keyframes fadeInPoint {
      from { opacity: 0; }
      to { opacity: 1; }
    }
    .data-line-0 {
      stroke-dasharray: 1057;
      stroke-dashoffset: 1057;
      animation: drawLine 2s ease-out forwards;
    }
    .data-point {
      opacity: 0;
      animation: fadeInPoint 0.5s ease-out forwards;
    }
    .chart-bg { fill: #fff; }
    .chart-text { fill: #24292e; }
    .chart-muted { fill: #6a737d; }
    .chart-grid { stroke: #eee; }
    .chart-axis { stroke: #6a737d; }
    @media (prefers-color-scheme: dark) {
      .chart-bg { fill: #0d1117; }
      .chart-text { fill: #e6edf3; }
      .chart-muted { fill: #8b949e; }
      .chart-grid { stroke: #21262d; }
      .chart-axis { stroke: #8b949e; }
    }
  </style>
  <rect width="800" height="400" class="chart-bg" />
  <text x="400" y="14" text-anchor="middle" class="chart-text" font-size="16" font-weight="bold" font-family="-apple-system, BlinkMacSystemFont, 'Segoe UI', Helvetica, Arial, sans-serif">Growth Forecast</text>
  <g class="legend">
    <rect x="220" y="31" width="12" height="3" fill="#dfb317" />
    <line x1="220" y1="32.5" x2="232" y2="32.5" stroke="#dfb317" stroke-width="2" />
    <text x="236" y="36" class="chart-text" font-size="10" font-family="-apple-system, BlinkMacSystemFont, 'Segoe UI', Helvetica, Arial, sans-serif">Star History</text>
    <rect x="340" y="31" width="12" height="3" fill="#28a745" rx="1" />
    <line x1="340" y1="32.5" x2="352" y2="32.5" stroke="#28a745" stroke-width="2" stroke-dasharray="4,2" />
    <text x="356" y="36" class="chart-text" font-size="10" font-family="-apple-system, BlinkMacSystemFont, 'Segoe UI', Helvetica, Arial, sans-serif">Linear Regression</text>
    <rect x="460" y="31" width="12" height="3" fill="#d73a49" rx="1" />
    <line x1="460" y1="32.5" x2="472" y2="32.5" stroke="#d73a49" stroke-width="2" stroke-dasharray="4,2" />
    <text x="476" y="36" class="chart-text" font-size="10" font-family="-apple-system, BlinkMacSystemFont, 'Segoe UI', Helvetica, Arial, sans-serif">Weighted Moving Average</text>
  </g>
  <g class="grid">
    <line x1="60" y1="350" x2="770" y2="350" class="chart-grid" stroke-opacity="0.3" />
    <text x="52" y="354" text-anchor="end" class="chart-muted" font-size="11" font-family="-apple-system, BlinkMacSystemFont, 'Segoe UI', Helvetica, Arial, sans-serif">0</text>
    <line x1="60" y1="282.7881707180464" x2="770" y2="282.7881707180464" class="chart-grid" stroke-opacity="0.3" />
    <text x="52" y="286.7881707180464" text-anchor="end" class="chart-muted" font-size="11" font-family="-apple-system, BlinkMacSystemFont, 'Segoe UI', Helvetica, Arial, sans-serif">2K</text>
    <line x1="60" y1="215.57634143609275" x2="770" y2="215.57634143609275" class="chart-grid" stroke-opacity="0.3" />
    <text x="52" y="219.57634143609275" text-anchor="end" class="chart-muted" font-size="11" font-family="-apple-system, BlinkMacSystemFont, 'Segoe UI', Helvetica, Arial, sans-serif">4K</text>
    <line x1="60" y1="148.3645121541391" x2="770" y2="148.3645121541391" class="chart-grid" stroke-opacity="0.3" />
    <text x="52" y="152.3645121541391" text-anchor="end" class="chart-muted" font-size="11" font-family="-apple-system, BlinkMacSystemFont, 'Segoe UI', Helvetica, Arial, sans-serif">6K</text>
    <line x1="60" y1="81.1526828721855" x2="770" y2="81.1526828721855" class="chart-grid" stroke-opacity="0.3" />
    <text x="52" y="85.1526828721855" text-anchor="end" class="chart-muted" font-size="11" font-family="-apple-system, BlinkMacSystemFont, 'Segoe UI', Helvetica, Arial, sans-serif">8K</text>
  </g>
  <g class="milestones">
    
  </g>
  <g class="x-axis">
    <text x="60" y="370" text-anchor="middle" class="chart-muted" font-size="11" font-family="-apple-system, BlinkMacSystemFont, 'Segoe UI', Helvetica, Arial, sans-serif">Jan 7</text>
    <text x="146.06060606060606" y="370" text-anchor="middle" class="chart-muted" font-size="11" font-family="-apple-system, BlinkMacSystemFont, 'Segoe UI', Helvetica, Arial, sans-serif">Oct 22</text>
    <text x="232.12121212121212" y="370" text-anchor="middle" class="chart-muted" font-size="11" font-family="-apple-system, BlinkMacSystemFont, 'Segoe UI', Helvetica, Arial, sans-serif">Aug 6</text>
    <text x="318.1818181818182" y="370" text-anchor="middle" class="chart-muted" font-size="11" font-family="-apple-system, BlinkMacSystemFont, 'Segoe UI', Helvetica, Arial, sans-serif">May 21</text>
    <text x="404.24242424242425" y="370" text-anchor="middle" class="chart-muted" font-size="11" font-family="-apple-system, BlinkMacSystemFont, 'Segoe UI', Helvetica, Arial, sans-serif">Mar 4</text>
    <text x="490.3030303030303" y="370" text-anchor="middle" class="chart-muted" font-size="11" font-family="-apple-system, BlinkMacSystemFont, 'Segoe UI', Helvetica, Arial, sans-serif">Dec 17</text>
    <text x="576.3636363636364" y="370" text-anchor="middle" class="chart-muted" font-size="11" font-family="-apple-system, BlinkMacSystemFont, 'Segoe UI', Helvetica, Arial, sans-serif">Oct 1</text>
    <text x="662.4242424242425" y="370" text-anchor="middle" class="chart-muted" font-size="11" font-family="-apple-system, BlinkMacSystemFont, 'Segoe UI', Helvetica, Arial, sans-serif">Jul 16</text>
    <text x="748.4848484848485" y="370" text-anchor="middle" class="chart-muted" font-size="11" font-family="-apple-system, BlinkMacSystemFont, 'Segoe UI', Helvetica, Arial, sans-serif">Week 3</text>
    <text x="770" y="370" text-anchor="middle" class="chart-muted" font-size="11" font-family="-apple-system, BlinkMacSystemFont, 'Segoe UI', Helvetica, Arial, sans-serif">Week 4</text>
  </g>
  <line x1="60" y1="50" x2="60" y2="350" class="chart-axis" stroke-width="1" />
  <line x1="60" y1="350" x2="770" y2="350" class="chart-axis" stroke-width="1" />
  <path d="M60,350 L60,349.966394085359 C67.17171717171718,349.5071132519323 74.34343434343434,349.0142265038647 81.51515151515152,348.58855158507896 C88.68686868686869,348.16287666629324 95.85858585858585,347.82121653410996 103.03030303030303,347.41234457264477 C110.20202020202021,347.0034726111796 117.37373737373737,346.6562114932228 124.54545454545455,346.1353198162877 C131.7171717171717,345.6144281393525 138.88888888888889,344.9927187184944 146.06060606060606,344.2869945110339 C153.23232323232324,343.58127030357343 160.4040404040404,342.5842948358911 167.57575757575756,341.9009745715246 C174.74747474747474,341.21765430715806 181.91919191919192,340.8199843172398 189.0909090909091,340.18707292483475 C196.26262626262627,339.5541615324297 203.43434343434345,339.22930435756695 210.60606060606062,338.1035062170942 C217.7777777777778,336.97770807662147 224.94949494949495,334.7429147529965 232.12121212121212,333.43228408199843 C239.2929292929293,332.12165341100035 246.46464646464645,331.2983085022964 253.63636363636363,330.2397221911056 C260.8080808080808,329.18113587991485 267.979797979798,328.36339195698446 275.1515151515151,327.08076621485384 C282.3232323232323,325.7981404727232 289.4949494949495,324.14024868376833 296.66666666666663,322.54396773832195 C303.83838383838383,320.9476867928756 311.010101010101,319.0153467010194 318.1818181818182,317.50308054217544 C325.35353535353534,315.9908143833315 332.52525252525254,315.0162428587431 339.6969696969697,313.4703707852582 C346.8686868686869,311.92449871177325 354.04040404040404,310.3898286098353 361.21212121212125,308.2278481012658 C368.3838383838384,306.0658675926963 375.55555555555554,303.0413352750084 382.7272727272727,300.49848773384116 C389.8989898989899,297.9556401926739 397.07070707070704,295.8552705276129 404.24242424242425,292.9707628542624 C411.4141414141414,290.08625518091185 418.5858585858586,287.3865800380867 425.75757575757575,283.1914416937381 C432.9292929292929,278.9963033493895 440.1010101010101,272.1911056345917 447.27272727272725,267.79993278817074 C454.44444444444446,263.40875994174974 461.6161616161616,260.64747395541616 468.7878787878788,256.8444046152123 C475.95959595959596,253.0413352750084 483.13131313131316,248.93581270303577 490.3030303030303,244.98151674694748 C497.47474747474746,241.0272207908592 504.64646464646466,237.75064411336396 511.8181818181818,233.11862887868264 C518.989898989899,228.48661364400135 526.1616161616162,223.120869272992 533.3333333333333,217.18942533885962 C540.5050505050505,211.2579814047272 547.6767676767677,203.2093648482133 554.8484848484849,197.52996527388822 C562.0202020202021,191.85056569956316 569.1919191919192,187.58261454015908 576.3636363636364,183.11302789290917 C583.5353535353536,178.64344124565926 590.7070707070707,176.02778088943657 597.8787878787879,170.71244539038872 C605.0505050505051,165.39710989134088 612.2222222222222,157.42130614988235 619.3939393939394,151.22101489862214 C626.5656565656566,145.0207236473619 633.7373737373738,140.39991038422767 640.909090909091,133.5106978828274 C648.0808080808082,126.62148538142718 655.2525252525253,118.41044023748184 662.4242424242425,109.88573989022069 C669.5959595959596,101.36103954295959 676.7676767676768,91.53691049624734 683.9393939393939,82.36249579926067 L683.9393939393939,350 L60,350 Z" fill="#dfb317" fill-opacity="0.1" />
  
  
  <path d="M60,350 L60,349.966394085359 C67.17171717171718,349.5071132519323 74.34343434343434,349.0142265038647 81.51515151515152,348.58855158507896 C88.68686868686869,348.16287666629324 95.85858585858585,347.82121653410996 103.03030303030303,347.41234457264477 C110.20202020202021,347.0034726111796 117.37373737373737,346.6562114932228 124.54545454545455,346.1353198162877 C131.7171717171717,345.6144281393525 138.88888888888889,344.9927187184944 146.06060606060606,344.2869945110339 C153.23232323232324,343.58127030357343 160.4040404040404,342.5842948358911 167.57575757575756,341.9009745715246 C174.74747474747474,341.21765430715806 181.91919191919192,340.8199843172398 189.0909090909091,340.18707292483475 C196.26262626262627,339.5541615324297 203.43434343434345,339.22930435756695 210.60606060606062,338.1035062170942 C217.7777777777778,336.97770807662147 224.94949494949495,334.7429147529965 232.12121212121212,333.43228408199843 C239.2929292929293,332.12165341100035 246.46464646464645,331.2983085022964 253.63636363636363,330.2397221911056 C260.8080808080808,329.18113587991485 267.979797979798,328.36339195698446 275.1515151515151,327.08076621485384 C282.3232323232323,325.7981404727232 289.4949494949495,324.14024868376833 296.66666666666663,322.54396773832195 C303.83838383838383,320.9476867928756 311.010101010101,319.0153467010194 318.1818181818182,317.50308054217544 C325.35353535353534,315.9908143833315 332.52525252525254,315.0162428587431 339.6969696969697,313.4703707852582 C346.8686868686869,311.92449871177325 354.04040404040404,310.3898286098353 361.21212121212125,308.2278481012658 C368.3838383838384,306.0658675926963 375.55555555555554,303.0413352750084 382.7272727272727,300.49848773384116 C389.8989898989899,297.9556401926739 397.07070707070704,295.8552705276129 404.24242424242425,292.9707628542624 C411.4141414141414,290.08625518091185 418.5858585858586,287.3865800380867 425.75757575757575,283.1914416937381 C432.9292929292929,278.9963033493895 440.1010101010101,272.1911056345917 447.27272727272725,267.79993278817074 C454.44444444444446,263.40875994174974 461.6161616161616,260.64747395541616 468.7878787878788,256.8444046152123 C475.95959595959596,253.0413352750084 483.13131313131316,248.93581270303577 490.3030303030303,244.98151674694748 C497.47474747474746,241.0272207908592 504.64646464646466,237.75064411336396 511.8181818181818,233.11862887868264 C518.989898989899,228.48661364400135 526.1616161616162,223.120869272992 533.3333333333333,217.18942533885962 C540.5050505050505,211.2579814047272 547.6767676767677,203.2093648482133 554.8484848484849,197.52996527388822 C562.0202020202021,191.85056569956316 569.1919191919192,187.58261454015908 576.3636363636364,183.11302789290917 C583.5353535353536,178.64344124565926 590.7070707070707,176.02778088943657 597.8787878787879,170.71244539038872 C605.0505050505051,165.39710989134088 612.2222222222222,157.42130614988235 619.3939393939394,151.22101489862214 C626.5656565656566,145.0207236473619 633.7373737373738,140.39991038422767 640.909090909091,133.5106978828274 C648.0808080808082,126.62148538142718 655.2525252525253,118.41044023748184 662.4242424242425,109.88573989022069 C669.5959595959596,101.36103954295959 676.7676767676768,91.53691049624734 683.9393939393939,82.36249579926067" fill="none" stroke="#dfb317" stroke-width="2.5" class="data-line-0" />
  <path d="M683.9393939393939,82.36249579926067 C691.1111111111111,82.08244651058585 698.2828282828282,81.79679623613755 705.4545454545454,81.52234793323623 C712.6262626262626,81.24789963033491 719.7979797979798,80.99025428475409 726.969696969697,80.71580598185278 C734.1414141414142,80.44135767895148 741.3131313131313,80.1557074045032 748.4848484848485,79.8756581158284 C755.6565656565657,79.5956088271536 762.8282828282828,79.31555953847878 770,79.03551024980396" fill="none" stroke="#28a745" stroke-width="2.5" stroke-dasharray="8,4" />
  <path d="M683.9393939393939,82.36249579926067 C691.1111111111111,81.93682088047497 698.2828282828282,81.50554497591578 705.4545454545454,81.08547104290358 C712.6262626262626,80.66539710989137 719.7979797979798,80.26212613419962 726.969696969697,79.84205220118741 C734.1414141414142,79.42197826817521 741.3131313131313,78.99070236361602 748.4848484848485,78.56502744483032 C755.6565656565657,78.13935252604462 762.8282828282828,77.71367760725889 770,77.28800268847317" fill="none" stroke="#d73a49" stroke-width="2.5" stroke-dasharray="8,4" />
  <g class="points">
    
    <circle cx="60" cy="349.966394085359" r="4" fill="#dfb317" class="data-point" style="animation-delay: 1.50s" />
    <circle cx="81.51515151515152" cy="348.58855158507896" r="4" fill="#dfb317" class="data-point" style="animation-delay: 1.55s" />
    <circle cx="103.03030303030303" cy="347.41234457264477" r="4" fill="#dfb317" class="data-point" style="animation-delay: 1.60s" />
    <circle cx="124.54545454545455" cy="346.1353198162877" r="4" fill="#dfb317" class="data-point" style="animation-delay: 1.65s" />
    <circle cx="146.06060606060606" cy="344.2869945110339" r="4" fill="#dfb317" class="data-point" style="animation-delay: 1.70s" />
    <circle cx="167.57575757575756" cy="341.9009745715246" r="4" fill="#dfb317" class="data-point" style="animation-delay: 1.75s" />
    <circle cx="189.0909090909091" cy="340.18707292483475" r="4" fill="#dfb317" class="data-point" style="animation-delay: 1.80s" />
    <circle cx="210.60606060606062" cy="338.1035062170942" r="4" fill="#dfb317" class="data-point" style="animation-delay: 1.85s" />
    <circle cx="232.12121212121212" cy="333.43228408199843" r="4" fill="#dfb317" class="data-point" style="animation-delay: 1.90s" />
    <circle cx="253.63636363636363" cy="330.2397221911056" r="4" fill="#dfb317" class="data-point" style="animation-delay: 1.95s" />
    <circle cx="275.1515151515151" cy="327.08076621485384" r="4" fill="#dfb317" class="data-point" style="animation-delay: 2.00s" />
    <circle cx="296.66666666666663" cy="322.54396773832195" r="4" fill="#dfb317" class="data-point" style="animation-delay: 2.05s" />
    <circle cx="318.1818181818182" cy="317.50308054217544" r="4" fill="#dfb317" class="data-point" style="animation-delay: 2.10s" />
    <circle cx="339.6969696969697" cy="313.4703707852582" r="4" fill="#dfb317" class="data-point" style="animation-delay: 2.15s" />
    <circle cx="361.21212121212125" cy="308.2278481012658" r="4" fill="#dfb317" class="data-point" style="animation-delay: 2.20s" />
    <circle cx="382.7272727272727" cy="300.49848773384116" r="4" fill="#dfb317" class="data-point" style="animation-delay: 2.25s" />
    <circle cx="404.24242424242425" cy="292.9707628542624" r="4" fill="#dfb317" class="data-point" style="animation-delay: 2.30s" />
    <circle cx="425.75757575757575" cy="283.1914416937381" r="4" fill="#dfb317" class="data-point" style="animation-delay: 2.35s" />
    <circle cx="447.27272727272725" cy="267.79993278817074" r="4" fill="#dfb317" class="data-point" style="animation-delay: 2.40s" />
    <circle cx="468.7878787878788" cy="256.8444046152123" r="4" fill="#dfb317" class="data-point" style="animation-delay: 2.45s" />
    <circle cx="490.3030303030303" cy="244.98151674694748" r="4" fill="#dfb317" class="data-point" style="animation-delay: 2.50s" />
    <circle cx="511.8181818181818" cy="233.11862887868264" r="4" fill="#dfb317" class="data-point" style="animation-delay: 2.55s" />
    <circle cx="533.3333333333333" cy="217.18942533885962" r="4" fill="#dfb317" class="data-point" style="animation-delay: 2.60s" />
    <circle cx="554.8484848484849" cy="197.52996527388822" r="4" fill="#dfb317" class="data-point" style="animation-delay: 2.65s" />
    <circle cx="576.3636363636364" cy="183.11302789290917" r="4" fill="#dfb317" class="data-point" style="animation-delay: 2.70s" />
    <circle cx="597.8787878787879" cy="170.71244539038872" r="4" fill="#dfb317" class="data-point" style="animation-delay: 2.75s" />
    <circle cx="619.3939393939394" cy="151.22101489862214" r="4" fill="#dfb317" class="data-point" style="animation-delay: 2.80s" />
    <circle cx="640.909090909091" cy="133.5106978828274" r="4" fill="#dfb317" class="data-point" style="animation-delay: 2.85s" />
    <circle cx="662.4242424242425" cy="109.88573989022069" r="4" fill="#dfb317" class="data-point" style="animation-delay: 2.90s" />
    <circle cx="683.9393939393939" cy="82.36249579926067" r="4" fill="#dfb317" class="data-point" style="animation-delay: 2.95s" />
  </g>
</svg>