<svg xmlns="http://www.w3.org/2000/svg" viewBox="0 0 800 400" width="800" height="400">
  <style>
    @keyframes drawLine {
      to { stroke-dashoffset: 0; }
    }
    @keyframes fadeInPoint {
      from { opacity: 0; }
      to { opacity: 1; }
    }
    .data-line-0 {
      stroke-dasharray: 1057;
      stroke-dashoffset: 1057;
      animation: drawLine 2s ease-out forwards;
    }
    .data-point {
      opacity: 0;
      animation: fadeInPoint 0.5s ease-out forwards;
    }
    .chart-bg { fill: #fff; }
    .chart-text { fill: #24292e; }
    .chart-muted { fill: #6a737d; }
    .chart-grid { stroke: #eee; }
    .chart-axis { stroke: #6a737d; }
    @media (prefers-color-scheme: dark) {
      .chart-bg { fill: #0d1117; }
      .chart-text { fill: #e6edf3; }
      .chart-muted { fill: #8b949e; }
      .chart-grid { stroke: #21262d; }
      .chart-axis { stroke: #8b949e; }
    }
  </style>
  <rect width="800" height="400" class="chart-bg" />
  <text x="400" y="14" text-anchor="middle" class="chart-text" font-size="16" font-weight="bold" font-family="-apple-system, BlinkMacSystemFont, 'Segoe UI', Helvetica, Arial, sans-serif">RapidAI/RapidOCR Growth Forecast</text>
  <g class="legend">
    <rect x="220" y="31" width="12" height="3" fill="#dfb317" />
    <line x1="220" y1="32.5" x2="232" y2="32.5" stroke="#dfb317" stroke-width="2" />
    <text x="236" y="36" class="chart-text" font-size="10" font-family="-apple-system, BlinkMacSystemFont, 'Segoe UI', Helvetica, Arial, sans-serif">Star History</text>
    <rect x="340" y="31" width="12" height="3" fill="#28a745" rx="1" />
    <line x1="340" y1="32.5" x2="352" y2="32.5" stroke="#28a745" stroke-width="2" stroke-dasharray="4,2" />
    <text x="356" y="36" class="chart-text" font-size="10" font-family="-apple-system, BlinkMacSystemFont, 'Segoe UI', Helvetica, Arial, sans-serif">Linear Regression</text>
    <rect x="460" y="31" width="12" height="3" fill="#d73a49" rx="1" />
    <line x1="460" y1="32.5" x2="472" y2="32.5" stroke="#d73a49" stroke-width="2" stroke-dasharray="4,2" />
    <text x="476" y="36" class="chart-text" font-size="10" font-family="-apple-system, BlinkMacSystemFont, 'Segoe UI', Helvetica, Arial, sans-serif">Weighted Moving Average</text>
  </g>
  <g class="grid">
    <line x1="60" y1="350" x2="770" y2="350" class="chart-grid" stroke-opacity="0.3" />
    <text x="52" y="354" text-anchor="end" class="chart-muted" font-size="11" font-family="-apple-system, BlinkMacSystemFont, 'Segoe UI', Helvetica, Arial, sans-serif">0</text>
    <line x1="60" y1="282.9009170208007" x2="770" y2="282.9009170208007" class="chart-grid" stroke-opacity="0.3" />
    <text x="52" y="286.9009170208007" text-anchor="end" class="chart-muted" font-size="11" font-family="-apple-system, BlinkMacSystemFont, 'Segoe UI', Helvetica, Arial, sans-serif">2K</text>
    <line x1="60" y1="215.80183404160144" x2="770" y2="215.80183404160144" class="chart-grid" stroke-opacity="0.3" />
    <text x="52" y="219.80183404160144" text-anchor="end" class="chart-muted" font-size="11" font-family="-apple-system, BlinkMacSystemFont, 'Segoe UI', Helvetica, Arial, sans-serif">4K</text>
    <line x1="60" y1="148.70275106240214" x2="770" y2="148.70275106240214" class="chart-grid" stroke-opacity="0.3" />
    <text x="52" y="152.70275106240214" text-anchor="end" class="chart-muted" font-size="11" font-family="-apple-system, BlinkMacSystemFont, 'Segoe UI', Helvetica, Arial, sans-serif">6K</text>
    <line x1="60" y1="81.60366808320288" x2="770" y2="81.60366808320288" class="chart-grid" stroke-opacity="0.3" />
    <text x="52" y="85.60366808320288" text-anchor="end" class="chart-muted" font-size="11" font-family="-apple-system, BlinkMacSystemFont, 'Segoe UI', Helvetica, Arial, sans-serif">8K</text>
  </g>
  <g class="milestones">
    
  </g>
  <g class="x-axis">
    <text x="60" y="370" text-anchor="middle" class="chart-muted" font-size="11" font-family="-apple-system, BlinkMacSystemFont, 'Segoe UI', Helvetica, Arial, sans-serif">Jan 7</text>
    <text x="146.06060606060606" y="370" text-anchor="middle" class="chart-muted" font-size="11" font-family="-apple-system, BlinkMacSystemFont, 'Segoe UI', Helvetica, Arial, sans-serif">Oct 22</text>
    <text x="232.12121212121212" y="370" text-anchor="middle" class="chart-muted" font-size="11" font-family="-apple-system, BlinkMacSystemFont, 'Segoe UI', Helvetica, Arial, sans-serif">Aug 6</text>
    <text x="318.1818181818182" y="370" text-anchor="middle" class="chart-muted" font-size="11" font-family="-apple-system, BlinkMacSystemFont, 'Segoe UI', Helvetica, Arial, sans-serif">May 22</text>
    <text x="404.24242424242425" y="370" text-anchor="middle" class="chart-muted" font-size="11" font-family="-apple-system, BlinkMacSystemFont, 'Segoe UI', Helvetica, Arial, sans-serif">Mar 5</text>
    <text x="490.3030303030303" y="370" text-anchor="middle" class="chart-muted" font-size="11" font-family="-apple-system, BlinkMacSystemFont, 'Segoe UI', Helvetica, Arial, sans-serif">Dec 18</text>
    <text x="576.3636363636364" y="370" text-anchor="middle" class="chart-muted" font-size="11" font-family="-apple-system, BlinkMacSystemFont, 'Segoe UI', Helvetica, Arial, sans-serif">Oct 2</text>
    <text x="662.4242424242425" y="370" text-anchor="middle" class="chart-muted" font-size="11" font-family="-apple-system, BlinkMacSystemFont, 'Segoe UI', Helvetica, Arial, sans-serif">Jul 18</text>
    <text x="748.4848484848485" y="370" text-anchor="middle" class="chart-muted" font-size="11" font-family="-apple-system, BlinkMacSystemFont, 'Segoe UI', Helvetica, Arial, sans-serif">Week 3</text>
    <text x="770" y="370" text-anchor="middle" class="chart-muted" font-size="11" font-family="-apple-system, BlinkMacSystemFont, 'Segoe UI', Helvetica, Arial, sans-serif">Week 4</text>
  </g>
  <line x1="60" y1="50" x2="60" y2="350" class="chart-axis" stroke-width="1" />
  <line x1="60" y1="350" x2="770" y2="350" class="chart-axis" stroke-width="1" />
  <path d="M60,350 L60,349.9664504585104 C67.17171717171718,349.50794005815254 74.34343434343434,349.0158801163051 81.51515151515152,348.59091925743684 C88.68686868686869,348.1659583985686 95.85858585858585,347.82487139342425 103.03030303030303,347.4166853053008 C110.20202020202021,347.00849921717736 117.37373737373737,346.66182062178484 124.54545454545455,346.14180272869606 C131.7171717171717,345.6217848356073 138.88888888888889,345.006709908298 146.06060606060606,344.2965779467681 C153.23232323232324,343.58644598523824 160.4040404040404,342.56877656005366 167.57575757575756,341.88101095951686 C174.74747474747474,341.19324535898005 181.91919191919192,340.8074256318497 189.0909090909091,340.1699843435473 C196.26262626262627,339.5325430552449 203.43434343434345,339.19145605010067 210.60606060606062,338.0563632297025 C217.7777777777778,336.9212704093044 224.94949494949495,334.6566763587564 232.12121212121212,333.35942742115856 C239.2929292929293,332.06217848356073 246.46464646464645,331.3296801610378 253.63636363636363,330.2728696041154 C260.8080808080808,329.21605904719297 267.979797979798,328.29903824647727 275.1515151515151,327.01856407962424 C282.3232323232323,325.7380899127712 289.4949494949495,324.1668530530083 296.66666666666663,322.5900246029971 C303.83838383838383,321.0131961529859 311.010101010101,319.0729143368374 318.1818181818182,317.55759337955715 C325.35353535353534,316.0422724222769 332.52525252525254,315.09170208007157 339.6969696969697,313.4980988593156 C346.8686868686869,311.9044956385596 354.04040404040404,310.17110266159693 361.21212121212125,307.99597405502124 C368.3838383838384,305.82084544844554 375.55555555555554,302.95795124133303 382.7272727272727,300.44732721986134 C389.8989898989899,297.93670319838964 397.07070707070704,295.8342652650414 404.24242424242425,292.932229926191 C411.4141414141414,290.03019458734065 418.5858585858586,287.22321628271084 425.75757575757575,283.0351151867591 C432.9292929292929,278.8470140908074 440.1010101010101,272.148288973384 447.27272727272725,267.80362335048085 C454.44444444444446,263.4589577275777 461.6161616161616,260.80854394989933 468.7878787878788,256.9671214493402 C475.95959595959596,253.12569894878104 483.13131313131316,248.7978080966227 490.3030303030303,244.75508834712593 C497.47474747474746,240.71236859762917 504.64646464646466,237.29590695593828 511.8181818181818,232.71080295235964 C518.989898989899,228.12569894878104 526.1616161616162,223.1995079400581 533.3333333333333,217.2444643256542 C540.5050505050505,211.28942071125024 547.6767676767677,202.62804741668532 554.8484848484849,196.98054126593604 C562.0202020202021,191.3330351151868 569.1919191919192,187.75441735629613 576.3636363636364,183.35942742115859 C583.5353535353536,178.96443748602104 590.7070707070707,175.94497875195705 597.8787878787879,170.6106016551107 C605.0505050505051,165.27622455826437 612.2222222222222,157.5654216059047 619.3939393939394,151.35316484008052 C626.5656565656566,145.14090807425632 633.7373737373738,140.32095728025055 640.909090909091,133.33706106016552 C648.0808080808082,126.35316484008055 655.2525252525253,117.94900469693582 662.4242424242425,109.44978751957055 C669.5959595959596,100.95057034220532 676.7676767676768,91.37776783717287 683.9393939393939,82.34175799597404 L683.9393939393939,350 L60,350 Z" fill="#dfb317" fill-opacity="0.1" />
  
  
  <path d="M60,350 L60,349.9664504585104 C67.17171717171718,349.50794005815254 74.34343434343434,349.0158801163051 81.51515151515152,348.59091925743684 C88.68686868686869,348.1659583985686 95.85858585858585,347.82487139342425 103.03030303030303,347.4166853053008 C110.20202020202021,347.00849921717736 117.37373737373737,346.66182062178484 124.54545454545455,346.14180272869606 C131.7171717171717,345.6217848356073 138.88888888888889,345.006709908298 146.06060606060606,344.2965779467681 C153.23232323232324,343.58644598523824 160.4040404040404,342.56877656005366 167.57575757575756,341.88101095951686 C174.74747474747474,341.19324535898005 181.91919191919192,340.8074256318497 189.0909090909091,340.1699843435473 C196.26262626262627,339.5325430552449 203.43434343434345,339.19145605010067 210.60606060606062,338.0563632297025 C217.7777777777778,336.9212704093044 224.94949494949495,334.6566763587564 232.12121212121212,333.35942742115856 C239.2929292929293,332.06217848356073 246.46464646464645,331.3296801610378 253.63636363636363,330.2728696041154 C260.8080808080808,329.21605904719297 267.979797979798,328.29903824647727 275.1515151515151,327.01856407962424 C282.3232323232323,325.7380899127712 289.4949494949495,324.1668530530083 296.66666666666663,322.5900246029971 C303.83838383838383,321.0131961529859 311.010101010101,319.0729143368374 318.1818181818182,317.55759337955715 C325.35353535353534,316.0422724222769 332.52525252525254,315.09170208007157 339.6969696969697,313.4980988593156 C346.8686868686869,311.9044956385596 354.04040404040404,310.17110266159693 361.21212121212125,307.99597405502124 C368.3838383838384,305.82084544844554 375.55555555555554,302.95795124133303 382.7272727272727,300.44732721986134 C389.8989898989899,297.93670319838964 397.07070707070704,295.8342652650414 404.24242424242425,292.932229926191 C411.4141414141414,290.03019458734065 418.5858585858586,287.22321628271084 425.75757575757575,283.0351151867591 C432.9292929292929,278.8470140908074 440.1010101010101,272.148288973384 447.27272727272725,267.80362335048085 C454.44444444444446,263.4589577275777 461.6161616161616,260.80854394989933 468.7878787878788,256.9671214493402 C475.95959595959596,253.12569894878104 483.13131313131316,248.7978080966227 490.3030303030303,244.75508834712593 C497.47474747474746,240.71236859762917 504.64646464646466,237.29590695593828 511.8181818181818,232.71080295235964 C518.989898989899,228.12569894878104 526.1616161616162,223.1995079400581 533.3333333333333,217.2444643256542 C540.5050505050505,211.28942071125024 547.6767676767677,202.62804741668532 554.8484848484849,196.98054126593604 C562.0202020202021,191.3330351151868 569.1919191919192,187.75441735629613 576.3636363636364,183.35942742115859 C583.5353535353536,178.96443748602104 590.7070707070707,175.94497875195705 597.8787878787879,170.6106016551107 C605.0505050505051,165.27622455826437 612.2222222222222,157.5654216059047 619.3939393939394,151.35316484008052 C626.5656565656566,145.14090807425632 633.7373737373738,140.32095728025055 640.909090909091,133.33706106016552 C648.0808080808082,126.35316484008055 655.2525252525253,117.94900469693582 662.4242424242425,109.44978751957055 C669.5959595959596,100.95057034220532 676.7676767676768,91.37776783717287 683.9393939393939,82.34175799597404" fill="none" stroke="#dfb317" stroke-width="2.5" class="data-line-0" />
  <path d="M683.9393939393939,82.34175799597404 C691.1111111111111,82.06217848356071 698.2828282828282,81.78259897114738 705.4545454545454,81.50301945873406 C712.6262626262626,81.22343994632074 719.7979797979798,80.93826884365915 726.969696969697,80.66428092149408 C734.1414141414142,80.39029299932902 741.3131313131313,80.13307984790877 748.4848484848485,79.85909192574371 C755.6565656565657,79.58510400357865 762.8282828282828,79.29993290091703 770,79.02035338850368" fill="none" stroke="#28a745" stroke-width="2.5" stroke-dasharray="8,4" />
  <path d="M683.9393939393939,82.34175799597404 C691.1111111111111,81.91679713710579 698.2828282828282,81.48624468798928 705.4545454545454,81.0668754193693 C712.6262626262626,80.64750615074931 719.7979797979798,80.24491165287411 726.969696969697,79.8255423842541 C734.1414141414142,79.4061731156341 741.3131313131313,78.97562066651757 748.4848484848485,78.55065980764931 C755.6565656565657,78.12569894878105 762.8282828282828,77.70073808991278 770,77.27577723104451" fill="none" stroke="#d73a49" stroke-width="2.5" stroke-dasharray="8,4" />
  <g class="points">
    
    <circle cx="60" cy="349.9664504585104" r="4" fill="#dfb317" class="data-point" style="animation-delay: 1.50s" />
    <circle cx="81.51515151515152" cy="348.59091925743684" r="4" fill="#dfb317" class="data-point" style="animation-delay: 1.55s" />
    <circle cx="103.03030303030303" cy="347.4166853053008" r="4" fill="#dfb317" class="data-point" style="animation-delay: 1.60s" />
    <circle cx="124.54545454545455" cy="346.14180272869606" r="4" fill="#dfb317" class="data-point" style="animation-delay: 1.65s" />
    <circle cx="146.06060606060606" cy="344.2965779467681" r="4" fill="#dfb317" class="data-point" style="animation-delay: 1.70s" />
    <circle cx="167.57575757575756" cy="341.88101095951686" r="4" fill="#dfb317" class="data-point" style="animation-delay: 1.75s" />
    <circle cx="189.0909090909091" cy="340.1699843435473" r="4" fill="#dfb317" class="data-point" style="animation-delay: 1.80s" />
    <circle cx="210.60606060606062" cy="338.0563632297025" r="4" fill="#dfb317" class="data-point" style="animation-delay: 1.85s" />
    <circle cx="232.12121212121212" cy="333.35942742115856" r="4" fill="#dfb317" class="data-point" style="animation-delay: 1.90s" />
    <circle cx="253.63636363636363" cy="330.2728696041154" r="4" fill="#dfb317" class="data-point" style="animation-delay: 1.95s" />
    <circle cx="275.1515151515151" cy="327.01856407962424" r="4" fill="#dfb317" class="data-point" style="animation-delay: 2.00s" />
    <circle cx="296.66666666666663" cy="322.5900246029971" r="4" fill="#dfb317" class="data-point" style="animation-delay: 2.05s" />
    <circle cx="318.1818181818182" cy="317.55759337955715" r="4" fill="#dfb317" class="data-point" style="animation-delay: 2.10s" />
    <circle cx="339.6969696969697" cy="313.4980988593156" r="4" fill="#dfb317" class="data-point" style="animation-delay: 2.15s" />
    <circle cx="361.21212121212125" cy="307.99597405502124" r="4" fill="#dfb317" class="data-point" style="animation-delay: 2.20s" />
    <circle cx="382.7272727272727" cy="300.44732721986134" r="4" fill="#dfb317" class="data-point" style="animation-delay: 2.25s" />
    <circle cx="404.24242424242425" cy="292.932229926191" r="4" fill="#dfb317" class="data-point" style="animation-delay: 2.30s" />
    <circle cx="425.75757575757575" cy="283.0351151867591" r="4" fill="#dfb317" class="data-point" style="animation-delay: 2.35s" />
    <circle cx="447.27272727272725" cy="267.80362335048085" r="4" fill="#dfb317" class="data-point" style="animation-delay: 2.40s" />
    <circle cx="468.7878787878788" cy="256.9671214493402" r="4" fill="#dfb317" class="data-point" style="animation-delay: 2.45s" />
    <circle cx="490.3030303030303" cy="244.75508834712593" r="4" fill="#dfb317" class="data-point" style="animation-delay: 2.50s" />
    <circle cx="511.8181818181818" cy="232.71080295235964" r="4" fill="#dfb317" class="data-point" style="animation-delay: 2.55s" />
    <circle cx="533.3333333333333" cy="217.2444643256542" r="4" fill="#dfb317" class="data-point" style="animation-delay: 2.60s" />
    <circle cx="554.8484848484849" cy="196.98054126593604" r="4" fill="#dfb317" class="data-point" style="animation-delay: 2.65s" />
    <circle cx="576.3636363636364" cy="183.35942742115859" r="4" fill="#dfb317" class="data-point" style="animation-delay: 2.70s" />
    <circle cx="597.8787878787879" cy="170.6106016551107" r="4" fill="#dfb317" class="data-point" style="animation-delay: 2.75s" />
    <circle cx="619.3939393939394" cy="151.35316484008052" r="4" fill="#dfb317" class="data-point" style="animation-delay: 2.80s" />
    <circle cx="640.909090909091" cy="133.33706106016552" r="4" fill="#dfb317" class="data-point" style="animation-delay: 2.85s" />
    <circle cx="662.4242424242425" cy="109.44978751957055" r="4" fill="#dfb317" class="data-point" style="animation-delay: 2.90s" />
    <circle cx="683.9393939393939" cy="82.34175799597404" r="4" fill="#dfb317" class="data-point" style="animation-delay: 2.95s" />
  </g>
</svg>